<svg width="1860" height="180" viewBox="0 0 1860 180" fill="none" xmlns="http://www.w3.org/2000/svg">
<path d="M0 2.57318L0.9833 1.71545C15.1592 2.36896 24.8283 2.69571 29.9906 2.69571L87.5137 1.47039C103.902 1.47039 117.34 3.02246 127.829 6.12662C138.318 9.14908 147.618 14.4588 155.73 22.0558C163.924 29.5711 170.111 38.3526 174.29 48.4003C178.551 58.3662 180.681 69.0266 180.681 80.3812C180.681 91.4091 178.756 102.314 174.904 113.097C171.053 123.88 165.563 133.56 158.434 142.138C151.387 150.633 143.316 157.495 134.22 162.723C125.207 167.951 116.152 171.464 107.057 173.261C97.9612 174.976 88.6609 175.834 79.1556 175.834C72.7642 175.834 60.7188 175.589 43.0194 175.099C37.2015 174.935 33.3503 174.854 31.4656 174.854C25.8116 174.854 18.9695 175.18 10.9392 175.834L9.95591 174.854V170.81L10.9392 169.585C15.7738 167.134 18.5188 165.623 19.1743 165.051C19.9118 164.398 20.4854 157.25 20.8951 143.608C21.3868 129.884 21.6326 119.428 21.6326 112.24V67.2702L21.5097 39.4554C21.5097 33.4105 21.4277 28.5092 21.2639 24.7515C21.1 20.9122 20.8132 18.1756 20.4035 16.5419C19.9938 14.9081 19.5021 13.7645 18.9285 13.111C18.4369 12.4575 17.5765 11.9265 16.3474 11.518C15.2002 11.0279 13.1926 10.6195 10.3246 10.2927L0.9833 9.55752L0 8.69979V2.57318ZM45.4776 162.478C53.8357 164.112 63.4638 164.929 74.3621 164.929C93.4545 164.929 108.696 161.743 120.085 155.371C131.557 148.999 140.12 139.564 145.774 127.066C151.428 114.568 154.255 100.477 154.255 84.7924C154.255 61.6746 148.069 43.744 135.695 31.0007C123.322 18.2573 103.82 11.8856 77.189 11.8856C66.2089 11.8856 55.6384 12.7025 45.4776 14.3363C44.8221 27.7331 44.4943 42.8455 44.4943 59.6732V98.1484L44.7401 134.173C44.7401 141.198 44.986 150.633 45.4776 162.478Z" fill="#EFEFEF"/>
<path d="M189.108 175.834L188.002 174.854V168.482L189.108 167.502C195.09 167.42 198.941 167.134 200.662 166.644C202.383 166.072 203.899 165.01 205.21 163.458C206.603 161.824 209.348 156.596 213.445 147.774L226.351 119.837L259.783 44.3567C266.092 29.5711 272.361 14.7856 278.589 0H286.578L339.061 123.022L346.067 139.442C348.116 144.098 350.451 149.163 353.073 154.636C355.778 160.109 357.621 163.336 358.605 164.316C359.67 165.296 360.94 166.072 362.415 166.644C363.972 167.134 367.372 167.42 372.617 167.502L373.6 168.482V174.854L372.617 175.834C363.931 175.099 356.105 174.731 349.14 174.731C335.538 175.14 321.936 175.507 308.333 175.834L307.35 174.854V168.482L308.333 167.502C317.511 167.338 323.247 166.971 325.541 166.399C327.835 165.745 328.983 164.316 328.983 162.11C328.983 160.313 328.409 157.944 327.262 155.003L312.144 117.631H240.977L227.58 148.999C225.204 154.636 224.015 158.761 224.015 161.375C224.015 163.417 225.122 164.929 227.334 165.909C229.546 166.889 235.118 167.42 244.05 167.502L245.156 168.482V174.854L244.173 175.834C233.603 175.18 224.343 174.854 216.395 174.854C207.381 174.854 198.286 175.18 189.108 175.834ZM245.156 107.093H307.35L276.499 33.2063L245.156 107.093Z" fill="#EFEFEF"/>
<path d="M380.183 175.711L379.077 174.609V168.972L380.183 167.992C385.181 167.91 389.156 167.624 392.106 167.134C395.137 166.644 397.063 165.827 397.882 164.683C398.784 163.54 399.357 161.702 399.603 159.169C399.931 156.637 400.218 150.919 400.464 142.015C400.791 133.111 400.955 126.739 400.955 122.9V23.8938C400.955 19.7277 400.177 16.6644 398.62 14.7039C397.145 12.6617 395.096 11.3955 392.474 10.9054C389.852 10.3336 385.386 10.0068 379.077 9.92512L378.094 8.94486V3.18584L379.077 2.08305C390.385 2.49149 397.8 2.69571 401.324 2.69571C409.6 2.69571 416.401 2.49149 421.727 2.08305L460.937 52.8114L518.582 124.86C525.547 133.601 532.635 141.892 539.846 149.735V54.8945C539.846 51.9537 539.682 45.7046 539.355 36.147C539.109 26.5078 538.781 20.4221 538.371 17.8897C537.962 15.2757 537.224 13.5194 536.159 12.6208C535.176 11.7223 533.25 11.0688 530.382 10.6603C527.596 10.1702 523.786 9.88427 518.951 9.80259L517.968 8.82233V3.18584L518.951 2.08305C525.589 2.49149 535.053 2.69571 547.344 2.69571C558.57 2.69571 566.723 2.49149 571.804 2.08305L572.91 3.18584V8.82233L571.926 9.80259C566.518 9.88427 562.339 10.211 559.389 10.7828C556.44 11.273 554.596 12.1307 553.858 13.356C553.121 14.5813 552.588 16.3785 552.26 18.7474C552.015 21.1164 551.728 26.7529 551.4 35.6569C551.154 44.5609 551.031 50.9734 551.031 54.8945V113.097L551.154 146.794C551.318 157.822 551.482 168.89 551.646 180C547.549 178.611 540.461 176.896 530.382 174.854L521.655 164.561L495.475 132.703L412.14 28.9176V122.9C412.14 126.658 412.263 133.356 412.509 142.995C412.837 152.634 413.206 158.475 413.615 160.517C414.025 162.56 414.558 163.989 415.213 164.806C415.869 165.541 417.262 166.236 419.392 166.889C421.605 167.543 426.111 167.91 432.913 167.992L433.896 168.972V174.731L432.913 175.711C428.652 175.14 421.768 174.854 412.263 174.854C400.054 174.854 389.361 175.14 380.183 175.711Z" fill="#EFEFEF"/>
<path d="M580.968 1.71545L596.332 2.20558C606.411 2.53233 613.007 2.69571 616.121 2.69571C618.907 2.69571 630.666 2.36896 651.397 1.71545L652.38 2.57318V8.69979L651.397 9.55752C645.743 9.7209 641.359 9.96596 638.245 10.2927C635.213 10.6195 633.001 11.2321 631.608 12.1307C630.215 13.0293 629.272 15.1532 628.781 18.5024C628.371 21.7699 628.166 26.3444 628.166 32.226L627.921 60.4084V117.141L628.043 141.035C628.125 150.265 628.371 156.229 628.781 158.924C629.191 161.62 629.764 163.417 630.502 164.316C631.321 165.214 632.837 165.99 635.049 166.644C637.262 167.216 642.711 167.665 651.397 167.992L652.38 168.727V174.854L651.397 175.834C650.987 175.834 643.776 175.589 629.764 175.099C623.946 174.935 619.399 174.854 616.121 174.854C613.581 174.854 601.863 175.18 580.968 175.834L579.985 174.854V168.727L580.968 167.992C588.589 167.665 593.669 167.257 596.209 166.767C598.749 166.276 600.429 165.664 601.248 164.929C602.15 164.112 602.846 162.437 603.338 159.905C603.912 157.372 604.239 151.736 604.321 142.995L604.444 117.141V60.4084L604.198 36.5146C604.116 27.2022 603.871 21.1981 603.461 18.5024C603.133 15.8067 602.56 14.0095 601.74 13.111C601.003 12.2124 599.528 11.4772 597.315 10.9054C595.103 10.3336 589.654 9.88428 580.968 9.55752L579.985 8.69979V2.57318L580.968 1.71545Z" fill="#EFEFEF"/>
<path d="M655.522 2.57318L656.505 1.71545C676.826 2.36896 688.544 2.69571 691.658 2.69571C694.444 2.69571 706.203 2.36896 726.934 1.71545L727.917 2.57318V8.69979L726.934 9.55752C721.28 9.7209 716.896 9.96596 713.782 10.2927C710.75 10.6195 708.538 11.2321 707.145 12.1307C705.752 13.0293 704.81 15.1532 704.318 18.5024C703.908 21.7699 703.703 26.3444 703.703 32.226L703.458 60.4084V114.568C703.458 128.128 703.539 137.604 703.703 142.995L704.318 164.193H729.392C749.386 164.193 761.841 163.948 766.757 163.458C771.756 162.968 776.549 161.784 781.138 159.905C782.04 157.862 783.31 153.165 784.948 145.813C786.669 138.462 787.571 134.214 787.653 133.07L788.759 132.09H794.781L795.642 133.07C794.986 136.338 794.29 142.668 793.552 152.063C792.897 161.457 792.569 169.054 792.569 174.854L791.586 175.834C776.017 175.344 755.572 175.099 730.253 175.099L694.362 174.854C686.168 174.854 677.81 175.18 669.288 175.834L668.305 174.854V170.81L669.288 169.585C674.368 166.971 677.154 165.378 677.646 164.806C678.138 164.234 678.629 158.965 679.121 148.999C679.694 139.033 679.981 127.025 679.981 112.975V60.4084L679.735 36.5146C679.654 27.2022 679.408 21.1981 678.998 18.5024C678.67 15.8067 678.097 14.0095 677.277 13.111C676.54 12.2124 675.065 11.4772 672.852 10.9054C670.64 10.3336 665.191 9.88428 656.505 9.55752L655.522 8.69979V2.57318Z" fill="#EFEFEF"/>
<path d="M855.269 175.834L854.286 174.854L854.778 169.462L855.884 168.482C863.095 168.155 867.642 167.461 869.527 166.399C871.412 165.255 873.296 161.538 875.181 155.248C877.148 148.877 881.409 127.556 887.964 91.2866L899.763 21.9333C896.322 16.4602 892.921 12.9884 889.562 11.518C886.284 10.0477 880.63 9.18993 872.6 8.94486L871.862 7.9646L872.231 2.69571L873.337 1.71545C879.319 2.28727 886.653 2.57318 895.339 2.57318C901.238 2.57318 907.056 2.28727 912.792 1.71545C913.612 3.4309 916.234 8.29135 920.659 16.2968L929.631 32.3485L998.462 148.754L1017.51 35.6569L1019.48 20.8305C1019.81 18.3798 1019.97 16.8278 1019.97 16.1743C1019.97 13.887 1019.19 12.3349 1017.64 11.518C1016.16 10.6195 1012.39 9.92512 1006.33 9.43499L1000.31 8.94486L999.323 7.9646L999.814 2.69571L1000.8 1.71545C1006.45 1.96051 1015.22 2.08305 1027.1 2.08305C1039.39 2.08305 1048.04 1.96051 1053.04 1.71545L1053.9 2.69571L1053.53 7.9646L1052.54 8.94486C1042.46 9.51668 1036.89 10.7012 1035.83 12.4983C1034.84 14.2137 1032.35 25.1191 1028.33 45.2144L1019.48 89.9387L1011.37 136.624C1009.16 149.367 1007.15 163.213 1005.35 178.162H992.808C991.989 176.447 989.817 172.362 986.294 165.909L978.55 152.185L908.613 33.8189L896.445 100.109L891.651 131.355C889.275 146.875 888.087 156.31 888.087 159.66C888.087 163.091 889.07 165.378 891.037 166.521C893.003 167.665 897.51 168.278 904.557 168.359C905.704 168.359 907.179 168.441 908.982 168.604L909.842 169.462L909.351 174.731L908.244 175.834C899.477 175.18 890.545 174.854 881.45 174.854C874.403 174.854 865.676 175.18 855.269 175.834Z" fill="#EFEFEF"/>
<path d="M1105.59 169.585L1104.97 174.854L1103.87 175.834C1103.54 175.834 1100.92 175.752 1096 175.589C1083.14 175.099 1074.98 174.854 1071.54 174.854C1063.1 174.854 1054.01 175.18 1044.25 175.834L1043.39 174.854L1043.76 169.585L1044.99 168.604C1052.28 168.196 1056.67 167.788 1058.14 167.379C1058.96 167.134 1059.58 166.848 1059.99 166.521C1060.4 166.195 1060.81 165.745 1061.22 165.174C1062.2 163.622 1063.1 161.457 1063.92 158.679C1064.82 155.248 1066.95 144.425 1070.31 126.208L1078.3 82.7093L1085.55 40.3131C1087.77 26.4261 1088.87 17.9714 1088.87 14.9489C1088.87 12.7434 1087.93 11.3138 1086.04 10.6603C1084.24 9.92512 1078.59 9.3533 1069.08 8.94486L1068.22 7.9646L1068.84 2.69571L1069.94 1.71545C1070.35 1.71545 1073.38 1.79714 1079.04 1.96052C1091.99 2.45065 1100.43 2.69571 1104.36 2.69571C1112.14 2.69571 1120.54 2.36896 1129.56 1.71545L1130.42 2.69571L1130.05 7.9646L1128.94 8.94486C1120.34 9.43499 1115.42 9.92512 1114.19 10.4152C1113.54 10.742 1112.92 11.2321 1112.35 11.8856C1111.77 12.5391 1111.16 14.0504 1110.5 16.4193C1108.46 24.098 1105.14 40.5582 1100.55 65.7999L1090.59 123.39C1086.74 146.753 1084.82 159.986 1084.82 163.091C1084.82 164.479 1085.23 165.541 1086.04 166.276C1086.86 166.93 1088.83 167.42 1091.94 167.747C1095.06 168.074 1099.36 168.359 1104.85 168.604L1105.59 169.585Z" fill="#EFEFEF"/>
<path d="M1148.43 2.69571L1149.54 1.71545L1183.95 2.69571C1191.74 2.69571 1200.14 2.36896 1209.15 1.71545L1210.01 2.69571L1209.64 7.9646L1208.53 8.94486C1200.18 9.43499 1195.26 9.92512 1193.78 10.4152C1192.39 10.9054 1191.12 12.9884 1189.97 16.6644C1188.83 20.2587 1186.62 31.0007 1183.34 48.8904L1176.33 87.243C1188.79 78.0123 1203.25 65.0238 1219.72 48.2777L1249.22 18.2573C1252.25 15.0715 1254.05 12.7434 1254.63 11.273C1255.2 9.80258 1255.53 6.9435 1255.61 2.69571L1256.59 1.71545C1262.17 2.28727 1267.57 2.57318 1272.82 2.57318C1276.67 2.57318 1281.63 2.28727 1287.69 1.71545L1288.67 2.69571L1288.18 7.9646L1287.2 8.94486C1282.2 9.02655 1278.51 9.63921 1276.14 10.7828C1273.84 11.9265 1269.87 15.1532 1264.21 20.4629L1196.86 83.6896L1251.68 150.837C1257.9 158.434 1262.25 163.131 1264.71 164.929C1267.25 166.644 1271.92 167.828 1278.72 168.482L1279.45 169.462L1278.96 174.854L1277.86 175.834C1271.88 175.18 1266.43 174.854 1261.51 174.854C1258.4 174.854 1252.95 175.18 1245.16 175.834C1225.74 147.978 1202.63 119.469 1175.84 90.3063C1168.22 133.683 1164.41 157.944 1164.41 163.091C1164.41 164.561 1165.23 165.745 1166.87 166.644C1168.59 167.543 1174.45 168.196 1184.44 168.604L1185.18 169.585L1184.57 174.854L1183.46 175.834L1151.13 174.854C1142.69 174.854 1133.6 175.18 1123.85 175.834L1122.99 174.854L1123.36 169.585L1124.59 168.604C1134.42 168.441 1139.99 167.175 1141.3 164.806C1142.69 162.437 1145.56 149.571 1149.91 126.208L1157.89 82.7093L1165.15 40.3131C1167.36 27.4064 1168.46 18.9517 1168.46 14.9489C1168.46 13.5602 1167.73 12.2532 1166.25 11.0279C1164.78 9.80259 1158.92 9.10824 1148.68 8.94486L1147.82 7.9646L1148.43 2.69571Z" fill="#EFEFEF"/>
<path d="M1342.21 169.585L1341.59 174.854L1340.49 175.834C1340.16 175.834 1337.54 175.752 1332.62 175.589C1319.76 175.099 1311.6 174.854 1308.16 174.854C1299.72 174.854 1290.63 175.18 1280.88 175.834L1280.02 174.854L1280.38 169.585L1281.61 168.604C1288.91 168.196 1293.29 167.788 1294.76 167.379C1295.58 167.134 1296.2 166.848 1296.61 166.521C1297.02 166.195 1297.43 165.745 1297.84 165.174C1298.82 163.622 1299.72 161.457 1300.54 158.679C1301.44 155.248 1303.57 144.425 1306.93 126.208L1314.92 82.7093L1322.17 40.3131C1324.39 26.4261 1325.49 17.9714 1325.49 14.9489C1325.49 12.7434 1324.55 11.3138 1322.67 10.6603C1320.86 9.92512 1315.21 9.3533 1305.7 8.94486L1304.84 7.9646L1305.46 2.69571L1306.56 1.71545C1306.97 1.71545 1310.01 1.79714 1315.66 1.96052C1328.61 2.45065 1337.05 2.69571 1340.98 2.69571C1348.76 2.69571 1357.16 2.36896 1366.18 1.71545L1367.04 2.69571L1366.67 7.9646L1365.56 8.94486C1356.96 9.43499 1352.04 9.92512 1350.81 10.4152C1350.16 10.742 1349.54 11.2321 1348.97 11.8856C1348.4 12.5391 1347.78 14.0504 1347.13 16.4193C1345.08 24.098 1341.76 40.5582 1337.17 65.7999L1327.21 123.39C1323.36 146.753 1321.44 159.986 1321.44 163.091C1321.44 164.479 1321.85 165.541 1322.67 166.276C1323.49 166.93 1325.45 167.42 1328.57 167.747C1331.68 168.074 1335.98 168.359 1341.47 168.604L1342.21 169.585Z" fill="#EFEFEF"/>
<path d="M1387.88 175.834L1387.02 174.854L1387.51 169.462L1388.49 168.604C1398.33 167.869 1404.1 167.175 1405.82 166.521C1407.63 165.786 1408.81 165.01 1409.39 164.193C1410.04 163.376 1410.74 161.702 1411.48 159.169C1412.22 156.555 1414.3 146.671 1417.75 129.517C1421.19 112.362 1424.71 92.8795 1428.32 71.0687C1431.92 49.1763 1434.63 29.9796 1436.43 13.4786C1409.39 13.4786 1394.11 14.1321 1390.58 15.4391C1387.14 16.7461 1383.7 25.5684 1380.26 41.9061L1379.15 42.8863H1374.24L1373.25 41.9061C1375.79 21.1572 1377.14 8.16882 1377.31 2.94077L1378.54 1.71545L1387.51 2.32811C1388.82 2.4098 1391.61 2.49149 1395.87 2.57318L1447.25 3.55344L1509.07 2.45065C1509.81 2.45065 1512.59 2.20558 1517.43 1.71545L1518.53 2.94077C1516.4 10.9462 1514.27 23.8938 1512.14 41.7835L1510.91 42.8863H1506L1505.01 41.7835C1505.1 40.3948 1505.22 35.4118 1505.38 26.8346C1505.3 21.4432 1504.6 17.8897 1503.29 16.1743C1501.98 14.3771 1486.7 13.4786 1457.45 13.4786C1456.63 16.9911 1454.87 26.3853 1452.16 41.661L1444.05 87.1205C1443.07 92.5936 1440.98 105.337 1437.78 125.351C1434.67 145.364 1433.11 157.372 1433.11 161.375C1433.11 163.581 1433.93 165.214 1435.57 166.276C1437.21 167.338 1444.05 168.074 1456.09 168.482L1457.08 169.585L1456.59 174.854L1455.48 175.834C1441.71 175.18 1430.61 174.854 1422.17 174.854C1409.88 174.854 1398.45 175.18 1387.88 175.834Z" fill="#EFEFEF"/>
<path d="M1678.27 169.83L1677.41 174.854L1676.3 175.834C1668.84 175.18 1660.49 174.854 1651.23 174.854C1644.92 174.854 1639.06 175.18 1633.65 175.834L1632.79 174.854L1638.93 144.588C1631.4 153.492 1621.73 161.498 1609.93 168.604C1598.21 175.711 1585.34 179.265 1571.33 179.265C1562.32 179.265 1554.21 177.549 1547 174.118C1539.79 170.688 1534.5 165.99 1531.14 160.027C1527.78 154.064 1526.1 147.57 1526.1 140.545C1526.1 135.807 1526.67 129.517 1527.82 121.675C1529.05 113.833 1531.06 102.233 1533.84 86.8754C1541.22 46.7665 1544.91 23.3628 1544.91 16.6644C1544.91 13.9687 1544.17 12.2124 1542.69 11.3955C1541.3 10.4969 1539.46 9.92512 1537.16 9.68005C1534.87 9.3533 1530.85 9.06739 1525.12 8.82233L1524.13 7.84207L1524.63 2.69571L1525.73 1.71545C1534.91 2.12389 1541.87 2.32811 1546.63 2.32811C1553.18 2.32811 1560.76 2.12389 1569.37 1.71545L1563.84 28.55C1562.2 36.6372 1560.15 47.5834 1557.69 61.3887L1551.3 96.9231C1549.5 106.889 1548.23 114.527 1547.49 119.837C1546.75 125.146 1546.3 128.904 1546.14 131.11C1545.97 133.315 1545.89 135.357 1545.89 137.236C1545.89 146.63 1549.41 153.656 1556.46 158.312C1563.51 162.968 1571.7 165.296 1581.04 165.296C1589.97 165.296 1599.77 162.519 1610.42 156.964C1621.15 151.409 1631.48 142.668 1641.39 130.742L1655.28 45.8271C1657.99 29.3261 1659.34 19.2784 1659.34 15.6841C1659.34 13.0701 1658.4 11.3955 1656.51 10.6603C1654.63 9.92512 1648.64 9.31246 1638.57 8.82233L1637.58 7.84207L1638.07 2.69571L1639.18 1.71545C1648.93 2.28727 1660.03 2.57318 1672.49 2.57318C1681.42 2.57318 1690.72 2.28727 1700.39 1.71545L1701.25 2.69571L1700.76 7.84207L1699.65 8.82233C1691.46 9.23077 1686.71 9.7209 1685.4 10.2927C1684.58 10.6195 1683.8 11.1913 1683.06 12.0082C1682.4 12.8251 1681.67 14.8264 1680.85 18.0123C1678.72 25.6093 1675.52 41.2526 1671.26 64.9421L1661.55 122.41C1657.7 146.59 1655.77 159.905 1655.77 162.355C1655.77 164.234 1656.14 165.541 1656.88 166.276C1657.7 166.93 1659.79 167.461 1663.15 167.869C1666.59 168.278 1671.3 168.564 1677.28 168.727L1678.27 169.83Z" fill="#EFEFEF"/>
<path d="M1719.76 2.69571L1720.86 1.71545L1755.28 2.69571C1763.06 2.69571 1771.46 2.36896 1780.48 1.71545L1781.34 2.69571L1780.97 7.9646L1779.86 8.94486C1771.5 9.43499 1766.59 9.92512 1765.11 10.4152C1763.72 10.9054 1762.45 12.9884 1761.3 16.6644C1760.15 20.2587 1757.94 31.0007 1754.66 48.8904L1747.66 87.243C1760.11 78.0123 1774.58 65.0238 1791.05 48.2777L1820.55 18.2573C1823.58 15.0715 1825.38 12.7434 1825.95 11.273C1826.53 9.80258 1826.85 6.9435 1826.94 2.69571L1827.92 1.71545C1833.49 2.28727 1838.9 2.57318 1844.14 2.57318C1848 2.57318 1852.95 2.28727 1859.02 1.71545L1860 2.69571L1859.51 7.9646L1858.53 8.94486C1853.53 9.02655 1849.84 9.63921 1847.46 10.7828C1845.17 11.9265 1841.19 15.1532 1835.54 20.4629L1768.18 83.6896L1823 150.837C1829.23 158.434 1833.57 163.131 1836.03 164.929C1838.57 166.644 1843.24 167.828 1850.04 168.482L1850.78 169.462L1850.29 174.854L1849.18 175.834C1843.2 175.18 1837.75 174.854 1832.84 174.854C1829.72 174.854 1824.27 175.18 1816.49 175.834C1797.07 147.978 1773.96 119.469 1747.17 90.3063C1739.55 133.683 1735.74 157.944 1735.74 163.091C1735.74 164.561 1736.55 165.745 1738.19 166.644C1739.91 167.543 1745.77 168.196 1755.77 168.604L1756.51 169.585L1755.89 174.854L1754.79 175.834L1722.46 174.854C1714.02 174.854 1704.93 175.18 1695.17 175.834L1694.31 174.854L1694.68 169.585L1695.91 168.604C1705.74 168.441 1711.32 167.175 1712.63 164.806C1714.02 162.437 1716.89 149.571 1721.23 126.208L1729.22 82.7093L1736.47 40.3131C1738.69 27.4064 1739.79 18.9517 1739.79 14.9489C1739.79 13.5602 1739.05 12.2532 1737.58 11.0279C1736.1 9.80259 1730.25 9.10824 1720 8.94486L1719.14 7.9646L1719.76 2.69571Z" fill="#EFEFEF"/>
</svg>
